<svg xmlns="http://www.w3.org/2000/svg" viewBox="0 0 99.71 99.71"><defs><style>.cls-1{fill:#424242;}.cls-2{fill:#fff;}</style></defs><g id="Layer_2" data-name="Layer 2"><g id="Menu_Btn" data-name="Menu Btn"><g id="Btn_Bkg" data-name="Btn Bkg"><rect class="cls-1" x="0.5" y="0.5" width="98.71" height="98.71"/><path class="cls-2" d="M98.71,1V98.71H1V1H98.71m1-1H0V99.71H99.71V0Z"/></g><rect x="19.52" y="9.03" width="61.32" height="19.99"/><path class="cls-2" d="M80.34,9.53v19H20v-19H80.34m1-1H19v21H81.34v-21Z"/><rect x="19.52" y="39.86" width="61.32" height="19.99"/><path class="cls-2" d="M80.34,40.36v19H20v-19H80.34m1-1H19v21H81.34v-21Z"/><rect x="18.87" y="68.72" width="61.32" height="19.99"/><path class="cls-2" d="M79.69,69.22v19H19.37v-19H79.69m1-1H18.37v21H80.69v-21Z"/></g></g></svg>