<svg id="Chess_League_Text" data-name="Chess League Text" xmlns="http://www.w3.org/2000/svg" xmlns:xlink="http://www.w3.org/1999/xlink" viewBox="0 0 298.49 675"><defs><style>.cls-1{fill:url(#radial-gradient);}.cls-2{fill:url(#Áåçûìÿííûé_ãðàäèåíò_13);}.cls-3{fill:#fff;opacity:0.3;}.cls-4{fill:url(#radial-gradient-2);}.cls-5{fill:url(#radial-gradient-3);}.cls-6{fill:url(#radial-gradient-4);}.cls-7{fill:url(#radial-gradient-5);}.cls-8{fill:url(#radial-gradient-6);}.cls-9{opacity:0.36;}</style><radialGradient id="radial-gradient" cx="1053.5" cy="116.47" r="93.86" gradientUnits="userSpaceOnUse"><stop offset="0" stop-color="red"/><stop offset="1" stop-color="#1a1a1a"/></radialGradient><radialGradient id="Áåçûìÿííûé_ãðàäèåíò_13" cx="1069.63" cy="78.52" r="13.99" gradientUnits="userSpaceOnUse"><stop offset="0" stop-color="#522037"/><stop offset="1"/></radialGradient><radialGradient id="radial-gradient-2" cx="954.49" cy="529.04" r="274.44" gradientUnits="userSpaceOnUse"><stop offset="0" stop-color="#7f0011"/><stop offset="1"/></radialGradient><radialGradient id="radial-gradient-3" cx="995.71" cy="348.41" r="266.36" gradientUnits="userSpaceOnUse"><stop offset="0" stop-color="red"/><stop offset="1"/></radialGradient><radialGradient id="radial-gradient-4" cx="1074.09" cy="368.56" fx="1041.7648280487126" r="65.68" xlink:href="#radial-gradient-2"/><radialGradient id="radial-gradient-5" cx="954.5" cy="528.98" r="274.47" xlink:href="#radial-gradient-2"/><radialGradient id="radial-gradient-6" cx="1073.87" cy="258.44" r="107.95" xlink:href="#radial-gradient-3"/></defs><path class="cls-1" d="M1146,216a162.76,162.76,0,0,1-6,44.23c-.26.83-.49,1.66-.74,2.47-4.31,14.22-10.51,26.78-18.14,36.94-9.29,12.43-20.68,21.26-33.24,25.06a48.13,48.13,0,0,1-14,2.1c-18.09,0-34.62-10.24-47.27-27.13-1.54-2.05-3-4.2-4.43-6.43-11.24-17.78-18.64-41.31-20.14-67.45-.19-3.22-.28-6.5-.28-9.79,0-3.74.12-7.42.35-11.07.25-4,.64-7.9,1.2-11.73.55-4.26,1.29-8.43,2.19-12.51,9-41.05,33.19-71.36,62.3-75.1a47.51,47.51,0,0,1,12.15,0c29.68,3.78,54.25,35.2,62.81,77.47.59,2.88,1.1,5.83,1.52,8.83a162.72,162.72,0,0,1,1.7,22.59C1146,215,1146,215.48,1146,216Z" transform="translate(-924.65 -77)"/><path class="cls-2" d="M1088.87,91.94a15,15,0,0,1-15,14.93,15.88,15.88,0,0,1-6.06-1.29,14.91,14.91,0,0,1,4.79-28.51v0c.42,0,.83,0,1.27,0A15,15,0,0,1,1088.87,91.94Z" transform="translate(-924.65 -77)"/><path class="cls-3" d="M1073.88,105.19c-.76.46-1.56.94-2.39,1.47a98.13,98.13,0,0,0-27,25.36c-22.54,31.37-18.69,66.43-17.36,75.92-6.45.65-15.9.72-25.05-3,3.43-52.94,31.09-94.91,65.69-99.34a14.91,14.91,0,0,1,4.79-28.51,22,22,0,0,0-4.19,11A23.76,23.76,0,0,0,1073.88,105.19Z" transform="translate(-924.65 -77)"/><path class="cls-4" d="M1214.78,696.41c0,15.88-16.87,30.19-43.9,40.33C1145.61,746.19,1111.5,752,1074,752c-43.58,0-82.54-7.81-108.38-20.08-20.28-9.63-32.47-22-32.47-35.51a25.26,25.26,0,0,1,4.54-14.06,44.08,44.08,0,0,1,7.28-8.28c21.78-19.57,71.36-33.26,129-33.26a321.27,321.27,0,0,1,68.83,7.1c32.94,7.26,57.67,19.64,67.44,34.39A25.51,25.51,0,0,1,1214.78,696.41Z" transform="translate(-924.65 -77)"/><path class="cls-5" d="M1222.37,663.42c-1.75,7.52-6.06,13.72-12.15,18.88-14,11.89-37.25,18.35-59.93,22.91h0c-7.79,1.57-15.51,2.9-22.75,4.17a238.7,238.7,0,0,1-53.64,3.21,238.62,238.62,0,0,1-53.63-3.21c-18.53-3.23-40.22-7-58.22-13.69-9.48-3.53-17.94-7.84-24.39-13.34-6.13-5.17-10.47-11.39-12.22-18.93-6.27-27,26.81-44.69,55-100.15v0c1.22-2.4,2.44-4.86,3.61-7.42a294.62,294.62,0,0,0,14.76-38.24c14.72-47.58,24-116.31,2.25-141.69-8.27-9.65-20.81-12.63-20.35-19.8.53-8.15,17-6.59,30.45-19.13a43,43,0,0,0,6.89-8.29,39,39,0,0,0,2.68-4.87c3.82-8.11,4-15.37,5.92-24.15a68,68,0,0,1,3.85-12.1c5.44-12.82,16.57-28.29,41.83-38.1,0,4.4,0,8.82.07,13.23,1-4.57,2.08-9,3.11-13.23,14.18,5.5,23.91,12.79,30.71,20.37a64.88,64.88,0,0,1,11.15,17.73,67.86,67.86,0,0,1,3.83,12.07c2.33,10.51,2.07,18.84,8.62,29.05a44.86,44.86,0,0,0,5.67,7.14c13.69,13.81,31.12,11.87,31.65,20.28.46,7.17-12.08,10.15-20.36,19.8C1125,401.28,1134.27,470,1149,517.59a290.85,290.85,0,0,0,14.5,37.71c1.27,2.76,2.58,5.44,3.92,8C1195.56,618.75,1228.61,636.45,1222.37,663.42Z" transform="translate(-924.65 -77)"/><path class="cls-6" d="M1166.11,356.79c.53,4.13-41.45,24.42-92.23,24.34-50.49-.07-92.34-20.24-91.82-24.34.46-3.56,32.91,6.1,89.7,6.35C1131.28,363.4,1165.65,353.1,1166.11,356.79Z" transform="translate(-924.65 -77)"/><path class="cls-7" d="M1170.51,558.94c.11,1.29-1,2.79-3.09,4.38-7.72,5.85-29.07,13.11-54.4,17.35a248.13,248.13,0,0,1-40.2,3.55c-33.4.1-69.65-7.88-85.86-16.43a26.86,26.86,0,0,1-6.56-4.52v0c-1.43-1.41-2.17-2.81-2.13-4.15a3.06,3.06,0,0,1,.24-1.18c.69-1.59,2.58-2.19,5.5-2.09a45.79,45.79,0,0,1,8.16,1.17c17.13,3.64,48.06,14.41,82.06,14.16a195.27,195.27,0,0,0,35.84-3.88c24-4.68,43.43-11.91,53.43-12,3.25,0,5.49.71,6.59,2.53A2.83,2.83,0,0,1,1170.51,558.94Z" transform="translate(-924.65 -77)"/><path class="cls-8" d="M1196.9,177.06c-.49.39-1,.8-1.57,1.27-13.25,10.78-41.95,37.47-55.29,81.89-.19.58-.37,1.15-.53,1.73-.07.25-.14.48-.21.74a166.55,166.55,0,0,0-3.85,73.13,161.65,161.65,0,0,1-50.59,12.49c-2.75.23-5.56.37-8.44.47a162.11,162.11,0,0,1-58.62-9.27q-3.66-1.32-6.68-2.54a150,150,0,0,0-4.56-73.89c-14.13-43.61-44.44-67.74-55.71-75.86a65.31,65.31,0,0,1,43.26-9.29,61.84,61.84,0,0,1,11.39,2.75,65.11,65.11,0,0,1,20.56,11.64,64.06,64.06,0,0,1,10.48,11c2.86-19.43,18.63-34,36.63-35.18,20.84-1.36,40.59,15.54,42.27,38.57a78.21,78.21,0,0,1,27.32-23.63,74.63,74.63,0,0,1,12.56-5.12,77.29,77.29,0,0,1,41.49-.9S1196.87,177.06,1196.9,177.06Z" transform="translate(-924.65 -77)"/><path class="cls-3" d="M1196.9,177.06c-.49.39-1,.8-1.57,1.27a7.4,7.4,0,0,0-.83-.05,77.54,77.54,0,0,0-20.9,1.45,87.2,87.2,0,0,0-29.32,12.15c-12.93,8.27-23.7,19.34-32.5,30.7,0-20.44-15.88-37.27-35.27-38.49-20.7-1.34-39.48,15.53-40.13,37.41a72.31,72.31,0,0,0-29.27-26.58c-1.27-.62-2.54-1.2-3.8-1.73a72.93,72.93,0,0,0-39-4.77,124.09,124.09,0,0,1,32.55,29.83c1.86,2.49,3.62,5,5.23,7.53,14.45,22.57,19.31,46.93,20.14,67.45a173.17,173.17,0,0,1-1.49,30.58c-1,7.4-2.24,12.89-2.89,15.7a46.41,46.41,0,0,1-16.66,12.7,45.23,45.23,0,0,1-13,3.57c.21.16.4.35.6.53A104.66,104.66,0,0,1,1000,367.26a93.67,93.67,0,0,1,15.22,23.05c16.75,36.51,5.25,76.2-9,125.27-5.09,17.61-10.33,31.83-14.11,41.42-.18,0-4-.14-5.94,2.79a6.8,6.8,0,0,0,.73,8,9.74,9.74,0,0,0,.77.81,137.43,137.43,0,0,1-20.08,40.13c-13.6,18.55-24.27,22.68-26.85,38.23-1.78,10.84,1.38,20.91,4.12,27.11.74,1.66,1.43,3,2,4.08A54.63,54.63,0,0,0,962,695.69a18.82,18.82,0,0,0-6.46,9c-2.37,7.86,1.38,17.72,10,27.19-20.28-9.63-32.47-22-32.47-35.51a25.26,25.26,0,0,1,4.54-14.06c-6.13-5.17-10.47-11.39-12.22-18.93-6.27-27,26.81-44.69,55-100.15v0c-1.43-1.41-2.17-2.81-2.13-4.15a3.06,3.06,0,0,1,.24-1.18c.69-1.59,2.58-2.19,5.5-2.09a294.62,294.62,0,0,0,14.76-38.24c14.72-47.58,24-116.31,2.25-141.69-8.27-9.65-20.81-12.63-20.35-19.8.53-8.15,17-6.59,30.45-19.13a150,150,0,0,0-4.56-73.89c-14.13-43.61-44.44-67.74-55.71-75.86a65.31,65.31,0,0,1,43.26-9.29,61.84,61.84,0,0,1,11.39,2.75,65.11,65.11,0,0,1,20.56,11.64,64.06,64.06,0,0,1,10.48,11c2.86-19.43,18.63-34,36.63-35.18,20.84-1.36,40.59,15.54,42.27,38.57a78.21,78.21,0,0,1,27.32-23.63,74.63,74.63,0,0,1,12.56-5.12,77.29,77.29,0,0,1,41.49-.9S1196.87,177.06,1196.9,177.06Z" transform="translate(-924.65 -77)"/><path class="cls-9" d="M1210.22,682.3a25.51,25.51,0,0,1,4.56,14.11c0,15.88-16.87,30.19-43.9,40.33a30,30,0,0,0-5.42-20.9,29.63,29.63,0,0,0-15.17-10.63h0c8.55-14.27,9.31-25.17,7.88-33-1.93-10.53-8.11-17.15-15.37-24.27s-15.28-14.5-21.51-26.72c-7.7-15.16-8.64-30.24-8.25-40.52a7.12,7.12,0,0,0-2.88-13.16l-.07-.23a402.69,402.69,0,0,1-11.32-138.62,393,393,0,0,1,8-50.22c.74-3.23,1.5-6.36,2.26-9.43a36.79,36.79,0,0,1-24.2-20.7,206.67,206.67,0,0,1,3.06-23.62,211.36,211.36,0,0,1,18.26-54.86,203.3,203.3,0,0,1,11-19.59A208.42,208.42,0,0,1,1146,214.47a214.48,214.48,0,0,1,48.52-36.19c.78-.44,1.57-.85,2.31-1.25,0,0,.06,0,.09,0-.49.39-1,.8-1.57,1.27-13.25,10.78-41.95,37.47-55.29,81.89-.26.83-.49,1.66-.74,2.47a166.55,166.55,0,0,0-3.85,73.13c13.69,13.81,31.12,11.87,31.65,20.28.46,7.17-12.08,10.15-20.36,19.8C1125,401.28,1134.27,470,1149,517.59a290.85,290.85,0,0,0,14.5,37.71c3.25,0,5.49.71,6.59,2.53a2.83,2.83,0,0,1,.42,1.11c.11,1.29-1,2.79-3.09,4.38,28.14,55.43,61.19,73.13,54.95,100.1C1220.62,670.94,1216.31,677.14,1210.22,682.3Z" transform="translate(-924.65 -77)"/></svg>